<svg width="91" height="90" fill="none" xmlns="http://www.w3.org/2000/svg"><path d="M28.372 44.258h-6.661v1.903h9.34a2.85 2.85 0 00-2.679-1.903zm2.855 5.71v-1.904H21.71v1.904h9.516zm0 7.613h1.903v-5.71H19.808v5.71h9.515v1.902h-9.515v7.614H33.13v-7.614h-1.903v-1.902zM62.63 34.742a4.763 4.763 0 004.758-4.759 4.763 4.763 0 00-4.758-4.757 4.764 4.764 0 00-4.758 4.757 4.764 4.764 0 004.758 4.76zm3.806 9.516v-8.816a6.618 6.618 0 01-7.613 0v8.816h7.613zM38.172 30.314a3.11 3.11 0 001.941-.824l7.702-7.11a6.658 6.658 0 01-3.264-5.694l-8.694 8.261a3.087 3.087 0 00-.968 2.216 3.09 3.09 0 00.91 2.241c.654.653 1.52.957 2.373.91zm8.28-13.653a4.764 4.764 0 004.752 4.758h.01a4.764 4.764 0 004.755-4.758 4.764 4.764 0 00-4.758-4.758 4.764 4.764 0 00-4.759 4.758zM53 23.071l3.616 4.069c1.07-2.253 3.36-3.818 6.014-3.818l.078.004-4.941-5.522A6.675 6.675 0 0153 23.07zm2.969 23.09v3.807H69.29V46.16H55.969zm3.008 12.314l1.529.882.951-1.648-1.539-.89a3.53 3.53 0 01.39-.343l.137-.101a3.9 3.9 0 011.233-.563v1.77h1.903v-1.77a3.807 3.807 0 011.76 1.007l-1.538.889.952 1.648 1.53-.882c.087.324.151.658.151 1.01s-.064.686-.153 1.01l-1.53-.884-.951 1.649 1.54.89a3.798 3.798 0 01-1.76 1.006v-1.767h-1.904v1.767a3.795 3.795 0 01-1.76-1.007l1.538-.888-.951-1.649-1.53.884a3.81 3.81 0 01-.152-1.01c0-.353.064-.687.154-1.01z" fill="#F33" fill-opacity=".5"/><path fill-rule="evenodd" clip-rule="evenodd" d="M54.065 67.097h17.13V51.87h-17.13v15.226zm8.565-1.904a5.715 5.715 0 005.709-5.709c0-3.149-2.56-5.71-5.71-5.71a5.716 5.716 0 00-5.71 5.71 5.715 5.715 0 005.71 5.71z" fill="#F33" fill-opacity=".5"/><path fill-rule="evenodd" clip-rule="evenodd" d="M90.132 44.656c0 24.664-19.993 44.658-44.655 44.658C20.814 89.314.82 69.32.82 44.656.82 19.993 20.814 0 45.477 0c24.662 0 44.655 19.993 44.655 44.656zm-63.663-7.06h-1.904V39.5h1.904v-1.903zm-3.807-2.854h1.903v1.904h-1.903v-1.904zM33.13 39.5h-1.903v1.903h1.903V39.5zm1.903-1.903h1.904V39.5h-1.904v-1.903zm38.065 12.37v17.13H75V69H16v-1.903h1.903v-17.13h1.904v-1.902h-1.904V46.16h1.904v-3.806h8.564a4.767 4.767 0 014.662 3.806h2v1.904H33.13v1.903h1.903v17.129h17.13v-17.13h1.902v-5.71h2.855v-10.86a6.626 6.626 0 01-.917-4.084l-5.35-6.02a6.515 6.515 0 01-.88-.13l-8.37 7.726A5.023 5.023 0 0138 32.224a4.894 4.894 0 01-2.105-.478 5.173 5.173 0 01-.804-.474l-5.095 5.094-1.346-1.346 5.125-5.124a4.977 4.977 0 01-.79-2.757 4.974 4.974 0 011.56-3.572L45.629 13.04A6.657 6.657 0 0151.21 10c3.009 0 5.556 2.007 6.378 4.751l8.602 9.612a6.66 6.66 0 013.1 5.62c0 1.25-.35 2.415-.951 3.415v10.86h2.854v5.71h1.904z" fill="#F33" fill-opacity=".5"/></svg>