<svg width="90" height="90" fill="none" xmlns="http://www.w3.org/2000/svg"><path fill-rule="evenodd" clip-rule="evenodd" d="M44.656 89.314c24.662 0 44.655-19.994 44.655-44.658C89.311 19.993 69.319 0 44.656 0S0 19.993 0 44.656C0 69.32 19.993 89.314 44.656 89.314zM12.681 50a5.5 5.5 0 10-.001-11.001 5.5 5.5 0 000 11.001zm33.5-5.5c0 6.352-5.149 11.5-11.5 11.5-6.352 0-11.5-5.148-11.5-11.5S28.329 33 34.68 33c6.351 0 11.5 5.148 11.5 11.5zm22 17.5c9.388 0 17-7.611 17-17s-7.612-17-17-17c-9.389 0-17 7.611-17 17s7.611 17 17 17z" fill="#F33" fill-opacity=".5"/></svg>