<svg width="90" height="90" fill="none" xmlns="http://www.w3.org/2000/svg"><path d="M31.662 62.183c1.043 0 1.946-.38 2.708-1.134.763-.756 1.144-1.65 1.144-2.685 0-1.034-.381-1.93-1.144-2.685-.762-.755-1.665-1.133-2.708-1.133-1.044 0-1.946.378-2.709 1.133-.762.756-1.143 1.651-1.143 2.685s.381 1.929 1.143 2.685c.763.756 1.665 1.134 2.71 1.134zM23.958 43.09h11.556v-7.635h-4.755a.904.904 0 00-.662.269l-5.869 5.816a.888.888 0 00-.27.656v.895zm36.27 18.745a3.99 3.99 0 001.105-.786c.764-.756 1.145-1.65 1.145-2.685 0-1.034-.382-1.93-1.145-2.685-.762-.755-1.665-1.133-2.708-1.133-.812 0-1.537.228-2.179.684-.183.131-.36.28-.53.449-.762.756-1.143 1.651-1.143 2.685s.381 1.929 1.143 2.685c.763.756 1.666 1.134 2.709 1.134a3.72 3.72 0 001.603-.348z" fill="#F33" fill-opacity=".5"/><path fill-rule="evenodd" clip-rule="evenodd" d="M44.656 89.314c24.662 0 44.655-19.994 44.655-44.658C89.311 19.993 69.319 0 44.656 0S0 19.993 0 44.656C0 69.32 19.993 89.314 44.656 89.314zM68.256 24c.52 0 .972.19 1.353.566.381.38.572.827.572 1.343v30.546c0 .298-.04.562-.12.79-.08.229-.216.412-.408.552-.19.14-.355.254-.496.344-.14.089-.376.148-.707.178l-.677.06c-.12.01-.376.01-.767 0l-.677-.015c0 2.108-.752 3.908-2.257 5.399-1.505 1.49-3.32 2.237-5.447 2.237-2.127 0-3.942-.746-5.446-2.237-1.505-1.491-2.257-3.291-2.257-5.399H39.366c0 2.108-.752 3.908-2.257 5.399C35.604 65.253 33.79 66 31.662 66c-2.127 0-3.942-.746-5.446-2.237-1.505-1.491-2.257-3.291-2.257-5.399h-1.926l-.678.015c-.391.01-.646.01-.767 0l-.677-.06c-.33-.03-.566-.09-.707-.178a9.606 9.606 0 01-.497-.344 1.133 1.133 0 01-.406-.552 2.386 2.386 0 01-.12-.79c0-.517.19-.965.572-1.342a1.93 1.93 0 01.677-.447c.21-.08.436-.12.676-.12V45l-.006-.568-.008-.477c-.01-.537-.01-.915 0-1.134.01-.219.035-.561.075-1.029.04-.468.105-.835.195-1.103.09-.27.23-.573.421-.91.192-.339.417-.636.678-.895l5.958-5.907c.38-.377.888-.695 1.52-.954.631-.258 1.218-.387 1.76-.387h4.816v-5.728c0-.516.19-.965.57-1.343a1.866 1.866 0 011.355-.566h30.816z" fill="#F33" fill-opacity=".5"/></svg>