<svg width="91" height="90" fill="none" xmlns="http://www.w3.org/2000/svg"><path d="M48.1 51a.763.763 0 00.776-.75v-1.5a.763.763 0 00-.775-.75h-1.55v-8.25a.763.763 0 00-.775-.75H44.46a2.39 2.39 0 00-1.29.378l-1.485.958a.747.747 0 00-.33.477.737.737 0 00.116.563l.86 1.247a.775.775 0 00.492.32.811.811 0 00.582-.111l.046-.03V48h-1.55a.781.781 0 00-.612.29.73.73 0 00-.163.46v1.5c0 .414.347.75.775.75h6.2z" fill="#F33" fill-opacity=".5"/><path fill-rule="evenodd" clip-rule="evenodd" d="M65.151 58.5c0-3.315 2.776-6 6.2-6v-15c-3.424 0-6.2-2.685-6.2-6h-40.3c0 3.315-2.776 6-6.2 6v15c3.424 0 6.2 2.685 6.2 6h40.3zM35.701 45c0-5.8 4.163-10.5 9.3-10.5 5.137 0 9.3 4.7 9.3 10.5S50.136 55.5 45 55.5c-5.137 0-9.3-4.701-9.3-10.5z" fill="#F33" fill-opacity=".5"/><path fill-rule="evenodd" clip-rule="evenodd" d="M45.477 89.314c24.662 0 44.655-19.994 44.655-44.658C90.132 19.993 70.139 0 45.477 0 20.814 0 .82 19.993.82 44.656c0 24.664 19.994 44.658 44.657 44.658zM17.1 27h55.8c1.711 0 3.1 1.344 3.1 3v30c0 1.656-1.389 3-3.1 3H17.1c-1.711 0-3.1-1.344-3.1-3V30c0-1.656 1.389-3 3.1-3z" fill="#F33" fill-opacity=".5"/></svg>