<svg width="91" height="90" fill="none" xmlns="http://www.w3.org/2000/svg"><path d="M25.87 60.743a2.16 2.16 0 01-.629.091 2.452 2.452 0 01-.512-.057 1.909 1.909 0 01-.584-.235 2.077 2.077 0 01-.382-.299 1.952 1.952 0 01-.602-1.451c0-.553.2-1.031.602-1.436a2 2 0 011.478-.606c.257 0 .498.042.724.126a2.092 2.092 0 01.738.48 2.3 2.3 0 01.308.373c.207.317.31.671.31 1.063 0 .574-.206 1.058-.618 1.451-.25.24-.527.406-.834.5z" fill="#F33" fill-opacity=".5"/><path fill-rule="evenodd" clip-rule="evenodd" d="M45.477 89.314c24.662 0 44.655-19.994 44.655-44.658C90.132 19.993 70.139 0 45.477 0 20.814 0 .82 19.993.82 44.656c0 24.664 19.994 44.658 44.657 44.658zm23.737-42.102C70.405 45.872 71 44.288 71 42.459c0-1.66-.618-3.095-1.85-4.308-.684-.67-1.437-1.156-2.26-1.456a5.98 5.98 0 00-1.747-.351 6.9 6.9 0 00-.38-.011H55.76c.087-.298.174-.553.26-.766a5.85 5.85 0 01.357-.702l.15-.255c.075-.132.134-.238.175-.319.39-.723.688-1.318.894-1.786.206-.468.41-1.107.617-1.914a9.778 9.778 0 00.309-2.425c0-.51-.006-.925-.017-1.244-.01-.319-.066-.797-.162-1.436a9.94 9.94 0 00-.217-1.058 5.62 5.62 0 00-.173-.536c-.163-.425-.423-.905-.78-1.436a4.955 4.955 0 00-.543-.67 4.38 4.38 0 00-.758-.622c-.509-.329-1.16-.605-1.95-.829-.791-.224-1.685-.335-2.682-.335-.258 0-.5.043-.725.128a1.932 1.932 0 00-.349.172 2.252 2.252 0 00-.388.306c-.213.21-.41.444-.592.704a6.2 6.2 0 00-.513.891l-.152.331a11.045 11.045 0 00-.312.774 6.232 6.232 0 00-.17.554c-.12.468-.255 1.117-.406 1.946a74.92 74.92 0 01-.44 1.93c-.097.393-.287.909-.568 1.547-.282.638-.618 1.149-1.008 1.531-.208.205-.448.456-.72.758-.286.317-.607.687-.963 1.11a99.177 99.177 0 00-1.6 1.96 58.953 58.953 0 01-3.282 3.86c-1.127 1.213-1.95 1.84-2.47 1.883a2.147 2.147 0 00-1.398.653c-.39.394-.584.857-.584 1.388v20.449a1.887 1.887 0 00.125.695c.101.266.265.507.492.724.412.394.9.6 1.463.622.378.01.993.133 1.845.365.857.235 1.953.58 3.29 1.04.844.279 1.596.525 2.255.737.642.206 1.196.38 1.66.522.363.11.78.224 1.251.34.758.186 1.658.382 2.698.585a27.7 27.7 0 002.749.402 19.712 19.712 0 001.93.093h4.193c2.882-.042 5.015-.872 6.402-2.488 1.257-1.468 1.787-3.393 1.593-5.775a5.9 5.9 0 001.179-1.526c.242-.45.434-.94.576-1.472.157-.554.248-1.1.27-1.634a6.217 6.217 0 00-.27-2.097c.996-1.298 1.462-2.754 1.396-4.371.003-.68-.159-1.49-.484-2.425zM30.44 40.417h-9.36c-.563 0-1.05.202-1.463.606-.411.404-.617.882-.617 1.436v20.417c0 .553.206 1.031.617 1.435.412.404.9.606 1.463.606h9.36a2.02 2.02 0 001.462-.606c.412-.404.617-.882.617-1.435V42.459a1.914 1.914 0 00-.296-1.043 2.285 2.285 0 00-.746-.723 1.97 1.97 0 00-1.037-.276z" fill="#F33" fill-opacity=".5"/></svg>