<svg width="91" height="90" fill="none" xmlns="http://www.w3.org/2000/svg"><path d="M90.132 44.657c0 24.663-19.993 44.656-44.656 44.656S.82 69.32.82 44.657 20.813 0 45.476 0s44.656 19.994 44.656 44.657z" fill="#F33" fill-opacity=".5"/><path d="M64.908 33.114c0 10.556-8.73 19.113-19.5 19.113-10.768 0-19.498-8.557-19.498-19.113S34.64 14 45.41 14c10.769 0 19.499 8.558 19.499 19.114z" fill="#fff" fill-opacity=".5"/><path d="M78.001 52.886C78.001 63.442 69.271 72 58.503 72c-10.77 0-19.5-8.558-19.5-19.114 0-10.556 8.73-19.114 19.5-19.114C69.272 33.773 78 42.33 78 52.886z" fill="#fff" fill-opacity=".5"/><path d="M53.998 52.886c0 10.556-8.73 19.114-19.5 19.114C23.73 72 15 63.442 15 52.886c0-10.556 8.73-19.114 19.499-19.114 10.769 0 19.498 8.558 19.498 19.114z" fill="#fff" fill-opacity=".5"/></svg>