<svg width="91" height="90" fill="none" xmlns="http://www.w3.org/2000/svg"><path fill-rule="evenodd" clip-rule="evenodd" d="M66.661 6.718a4.982 4.982 0 001.274-.668 44.884 44.884 0 0113.637 12.31 5 5 0 004.845 8.437 44.515 44.515 0 013.715 17.86c0 4.67-.718 9.174-2.048 13.407a5 5 0 10-3.897 8.871 44.878 44.878 0 01-14.186 15.047 5 5 0 10-7.861 4.119 44.526 44.526 0 01-16.663 3.213 44.525 44.525 0 01-17.282-3.467A4.98 4.98 0 0030.001 82a5 5 0 00-9.96-.634A44.879 44.879 0 016.645 66.724a5.002 5.002 0 10-3.815-9.23l-.12.06a44.661 44.661 0 01-1.89-12.81 5 5 0 10.389-6.003 44.35 44.35 0 013.25-11.77 5 5 0 004.501-8.025A44.891 44.891 0 0122.523 6.343a5.001 5.001 0 007.419-3.567A44.397 44.397 0 0140.298.296 5 5 0 1050 2c0-.637-.12-1.246-.336-1.807a44.49 44.49 0 0110.354 2.228 5 5 0 006.642 4.297zM30.001 42a5 5 0 11-10 0 5 5 0 0110 0zm15 5a5 5 0 100-10 5 5 0 000 10zm25-5a5 5 0 11-10 0 5 5 0 0110 0zm15 5a5 5 0 100-10 5 5 0 000 10zm-60-20a5 5 0 100-10 5 5 0 000 10zm25-5a5 5 0 11-10 0 5 5 0 0110 0zm15 5a5 5 0 100-10 5 5 0 000 10zm-40 40a5 5 0 100-10 5 5 0 000 10zm25-5a5 5 0 11-10 0 5 5 0 0110 0zm15 5a5 5 0 100-10 5 5 0 000 10zm-20 20a5 5 0 100-10 5 5 0 000 10z" fill="#F33" fill-opacity=".5"/></svg>