<svg width="48" height="43" fill="none" xmlns="http://www.w3.org/2000/svg"><path d="M28.043 2.49a2.248 2.248 0 01-.265-.502l.096-.085.51.204.558.214c.212.074.442.161.69.22.122.036.246.072.374.086.064.008.126.026.19.037.063.004.127.006.19.014.256.033.49.006.748-.007.12-.042.252-.054.382-.108.12-.068.275-.108.386-.195.058-.04.119-.08.184-.12.068-.037.14-.066.212-.141l.455-.37-.012.017.003-.003.008-.006.015-.013.03-.026.06-.052.12-.101.225-.207c.141-.141.32-.251.462-.388.14-.14.33-.227.48-.363.161-.123.35-.215.53-.334.382-.174.827-.303 1.226-.249.1.01.197.026.292.043.093.025.18.056.265.087.176.056.328.137.47.216a3.23 3.23 0 011.107 1.03c.102.149.162.28.203.37l.053.143-.096.086s-.205-.067-.52-.195l-.552-.216c-.206-.082-.433-.173-.672-.251a3.396 3.396 0 00-.367-.116c-.064-.015-.126-.04-.19-.057a1.717 1.717 0 01-.19-.048 4.061 4.061 0 00-.851-.194c-.151.019-.331.013-.489.076-.15.074-.324.131-.446.263-.122.128-.262.24-.347.401l-.125.242-.057.121-.028.06-.014.032-.007.014-.003.007-.002.005-.017.025-.246.524c-.08.17-.265.36-.416.528-.153.183-.358.288-.54.431-.19.13-.424.205-.638.299-.454.126-.928.148-1.328.045a2.32 2.32 0 01-.557-.184 3.268 3.268 0 01-.463-.245A3.565 3.565 0 0128.453 3a3.193 3.193 0 01-.41-.508zm19.608 29.72V43H.911V32.21h3.183V20.09l8.972-6.095v6.096l8.971-6.096v6.096l8.973-6.096v11.981h3.095l1.682-21.193h5.13l1.472 21.193h3.453v6.236h1.81v-.001zm-32.089-4.659H8.508v6.306h7.054v-6.305zm12.155 0h-7.054v6.306h7.054v-6.305zm12.308 0H32.97v6.306h7.054v-6.305z" fill="#80A2C5"/></svg>