<svg width="56" height="36" fill="none" xmlns="http://www.w3.org/2000/svg"><path d="M25.61 36c1.896 0 3.432-1.445 3.432-3.226 0-1.782-1.536-3.226-3.431-3.226s-3.431 1.444-3.431 3.226c0 1.781 1.536 3.226 3.43 3.226zM9.457 36c1.895 0 3.43-1.445 3.43-3.226 0-1.782-1.535-3.226-3.43-3.226-1.895 0-3.432 1.444-3.432 3.226C6.025 34.555 7.562 36 9.457 36zm44.414-3.008H40.018c-.825 0-1.495-.63-1.495-1.406V1.406c0-.777.67-1.406 1.495-1.406.826 0 1.495.63 1.495 1.405V30.18h12.359c.825 0 1.495.63 1.495 1.406 0 .776-.67 1.406-1.495 1.406z" fill="#80A2C5"/><path d="M34.382 20.887C31.29 16.134 23.158 3.4 23.076 3.273c-.414-.652-1.173-1.056-1.98-1.056H7.923c-1.271 0-2.306.973-2.306 2.168V16.32H1.91c-.879 0-1.594.672-1.594 1.498v13.827c0 .826.715 1.498 1.594 1.498h1.67a.38.38 0 00.39-.368c0-2.844 2.462-5.158 5.487-5.158s5.486 2.314 5.486 5.158c0 .098.04.191.114.26a.404.404 0 00.277.108h4.399c.216 0 .391-.165.391-.368 0-2.844 2.461-5.158 5.486-5.158s5.486 2.314 5.486 5.158c0 .203.175.368.391.368h1.194c1.141 0 2.07-.873 2.07-1.945v-9.331c0-.382-.19-.706-.369-.98zm-13.088-.024v-2.016c0-.346-.299-.627-.667-.627h-3.78v-5.935c0-.346-.299-.627-.667-.627h-2.112c-.369 0-.668.28-.668.627v8.578h-3.17V6.554h9.557l9.094 14.31h-7.587v-.001zm34.073 6.443c0 .37-.318.67-.711.67H44.463c-.392 0-.711-.3-.711-.67v-9.583c0-.37.319-.669.711-.669h10.193c.393 0 .711.3.711.67v9.582zm0-13.66c0 .37-.318.67-.711.67H44.463c-.392 0-.711-.3-.711-.67V4.063c0-.37.319-.669.711-.669h10.193c.393 0 .711.3.711.67v9.582z" fill="#80A2C5"/></svg>