<svg width="41" height="44" fill="none" xmlns="http://www.w3.org/2000/svg"><path fill-rule="evenodd" clip-rule="evenodd" d="M37.003 24.321c1.951.086 3.606-1.397 3.692-3.314.085-1.917-1.287-3.64-3.24-3.722l-12.962-1.572s2.702-4.362 2.702-10.825C27.195.58 24.006 0 22.13 0c-1.475 0-1.872 2.759-1.872 2.759h-.003c-.334 1.769-.769 3.314-2.28 6.159-1.692 3.188-3.996 2.889-6.685 5.729-.475.5-1.113 1.326-1.735 2.341a.8.8 0 00-.143.235c-.056.126-.122.214-.18.33-.104.183-.205.365-.305.557-1.664 1.607-4.258 1.443-5.362 1.443-2.216 0-3.376 1.243-3.376 3.259V37.71c0 2.261.958 3.024 3.376 3.024H6.94c1.7 0 3.03.941 5.064 1.63 2.785.931 6.944 1.63 14.109 1.63 1.253 0 5.14.005 5.14.005 1.19 0 2.145-.525 2.835-1.158.262-.241.536-.591.653-1.274.02-.106.04-.55.037-.61.09-1.953-1.133-2.66-1.826-2.882.019-.007.006-.023.044-.022l2.2.095c1.952.086 3.88-1.272 3.88-3.581 0-1.915-1.608-3.265-3.555-3.357l1.167.052c1.952.083 3.602-1.4 3.693-3.317.085-1.917-1.428-3.539-3.379-3.625z" fill="#80A2C5"/></svg>